<?xml version="1.0" encoding="UTF-8"?>
<svg id="Layer_2" data-name="Layer 2" xmlns="http://www.w3.org/2000/svg" viewBox="0 0 264.43 67.04">
  <defs>
    <style>
      .cls-1 {
        fill: #f7f1e6;
      }

      .cls-2 {
        fill: #939393;
      }

      .cls-3 {
        fill: #e0dcd3;
      }

      .cls-4 {
        fill: #e6a123;
      }

      .cls-5 {
        fill: #1f2b33;
      }

      .cls-6 {
        fill: #c3bfb8;
      }

      .cls-7 {
        fill: #2b3237;
      }
    </style>
  </defs>
  <g id="Layer_1-2" data-name="Layer 1">
    <g>
      <path class="cls-4" d="M28.07,3.07c-.14.53-.44.96-.82,1.33-.15.14-.32.26-.52.32-1.54.52-2.82-.09-3.95-1.15-.63-.59-.66-1.57-.06-2.19C23.62.47,24.71-.04,26,0c1.05.03,2.05,1.07,2.11,2.16,0,.14,0,.29,0,.43,0,.16,0,.32-.05.48Z"/>
      <path class="cls-4" d="M7.19,3.07c.14.53.44.96.82,1.33.15.14.32.26.52.32,1.54.52,2.82-.09,3.95-1.15.63-.59.66-1.57.06-2.19C11.64.47,10.55-.04,9.26,0c-1.05.03-2.05,1.07-2.11,2.16,0,.14,0,.29,0,.43,0,.16,0,.32.05.48Z"/>
      <path class="cls-7" d="M28.12,2.85s2.17,1.2,3.74,3.91c0,0,2.35,3.47,2.54,8.86v2.73s-.58-.88-1.97-.54c0,0,.33-4.29-1.27-8.04,0,0-1.4-3.62-4.2-5.2l1.17-1.71Z"/>
      <path class="cls-7" d="M.8,18.34s-.3-3.43.59-6.76c0,0,.88-4.5,4.14-7.6,0,0,1.02-.83,1.61-1.14l1.08,1.75s-2.19,1.21-3.28,3.51c0,0-1.47,2.3-1.98,5.85l-.15,3.91-2,.49Z"/>
      <path class="cls-3" d="M4.63,20.51s.32,3.27,3.03,5.84c0,0,2.14,2.05,5.06,2.72,0,0,3.16.93,6.8.58,0,0,4.03-.49,6.26-1.98,0,0,2.61-1.47,3.98-4.39,0,0,.75-1.8.91-3.57,0,0,.27-2.06,2.7-1.95,0,0,1.62.18,1.86,2.3,0,0-.19,3.59-2.05,6.57,0,0-1.46,2.95-4.76,4.95,0,0-3.66,2.65-8.72,2.8,0,0-4.24.73-9.47-1.03,0,0-4.19-1.49-6.55-4.38,0,0-1.92-1.91-3.09-5.49,0,0-.58-1.66-.61-3.81,0,0,.29-1.83,2.27-1.91,0,0,1.44-.11,2.12,1.55,0,0,.14.94.24,1.21Z"/>
      <path class="cls-6" d="M29.48,30.87s-.71,3.58-7,6.02c0,0-3.32,1.55-8.43.64,0,0-4.72-1.1-7.06-3.79,0,0-1.92-1.54-1.94-3.4,0,0,4.08,3.55,9.61,4.02,0,0,6.07.88,11.72-1.62,0,0,2.24-1.04,3.1-1.87Z"/>
      <path class="cls-7" d="M17.99,37.79s-.22,1.83-.62,2.85c0,0-1.11,3.91-1.29,4.82,0,0-1.08,3.87-1.22,6.09,0,0-.41,3.52,0,5.13,0,0,.23,3.38,2.5,5.32,0,0,1.97,2.05,5.46,2.45,0,0,1.67.45,4.84.35,0,0,3.92-.17,4.81-.5,0,0,2.63-.34,4.69-1.61,0,0,1.54-.61,2.69-2.7,0,0,.92-1.58,1.02-4.2,0,0,.14-1.98,0-3.65l-.26-2.87-.25-3.26.02-3.11s-.09-2.99,1.06-5.72c0,0,.73-1.76,1.91-3.21,0,0,1.32-1.7,3.89-3.14,0,0,.34,1.07,1.13,2,0,0-1.74.92-2.63,1.98,0,0-1.36,1.13-2.19,3.2,0,0-.91,2.25-.93,4.38v3.18s.05,1.92.05,1.92c0,0,.26,2.22.31,3.32,0,0,.21,1.79.15,5.2,0,0,.1,2.75-1.46,5.38,0,0-.87,1.82-3.46,3.35,0,0-2.43,1.31-4.7,1.68,0,0-1.84.44-4.02.52,0,0-3.1.17-4.01.06,0,0-2.83-.1-4.98-.76,0,0-2.17-.57-3.9-1.9,0,0-2.04-1.55-2.86-3.46,0,0-.72-1.29-1.15-3.53,0,0-.4-2.61-.1-4.96,0,0,.13-1.82.32-2.75l.48-2.53.74-3.01.62-2.23.74-2.6s.31-1.32.27-1.55c0,0,1.89-.1,2.33.05Z"/>
      <circle class="cls-3" cx="54.45" cy="27.88" r="7.88"/>
      <circle class="cls-1" cx="54.45" cy="27.88" r="6.39"/>
      <circle class="cls-7" cx="54.45" cy="27.88" r="3.16"/>
      <path class="cls-5" d="M75.23,31.03v17.64h-7.49v-31.19h7.2v4.56s1.88-3.24,3.46-4.01c0,0,1.54-1.26,4.63-1.32,0,0,1.88-.26,4.33.64,0,0,4.34,1.22,5.45,6.22,0,0,.41,1.44.41,3.34v2.9s0,2.7,0,2.7v16.16h-7.54v-18.66s.09-2.32-.43-3.63c0,0-.43-1.82-2.18-2.51,0,0-2.85-1.2-5.42.65,0,0-1.2.9-1.71,2.37,0,0-.51,1.07-.56,2.3l-.14,1.82Z"/>
      <path class="cls-5" d="M123.07,32.57s-.05-2.2-.33-4.13c0,0-.47-2.76-1.43-4.47,0,0-1.13-2.25-2.58-3.65,0,0-1.59-1.8-4.07-2.73,0,0-2.18-.9-4.42-.95,0,0-3.03-.23-4.95.43,0,0-2.33.67-3.91,1.78,0,0-1.69,1.21-3.14,3.09,0,0-1.22,1.75-1.86,3.61,0,0-1.07,2.66-1.12,5.87,0,0-.25,2.46,0,4.64,0,0,.45,3.63,1.08,5.1,0,0,.88,3,3.9,5.43,0,0,2.55,2.25,6.31,2.92,0,0,3.54.5,5.12.11,0,0,2.51-.33,3.73-.96,0,0,3.04-1.22,5.11-4.13,0,0,1.75-2.01,2.18-4.95h-7.53s-1.04,3.19-4.72,3.56l-1.58.03s-3.15-.19-4.7-2.49c0,0-.75-.77-1.36-3.05,0,0-.19-1.03-.19-1.56l-.04-.68h20.51v-2.8ZM115.38,30.03h-12.59c.22-2,.71-2.84.71-2.84,1.03-2.68,2.88-3.28,2.88-3.28,4.17-1.63,6.75.81,6.75.81,2.49,1.95,2.25,5.31,2.25,5.31Z"/>
      <path class="cls-5" d="M151.98,32.57s-.05-2.2-.33-4.13c0,0-.47-2.76-1.43-4.47,0,0-1.13-2.25-2.58-3.65,0,0-1.59-1.8-4.07-2.73,0,0-2.18-.9-4.42-.95,0,0-3.03-.23-4.95.43,0,0-2.33.67-3.91,1.78,0,0-1.69,1.21-3.14,3.09,0,0-1.22,1.75-1.86,3.61,0,0-1.07,2.66-1.12,5.87,0,0-.25,2.46,0,4.64,0,0,.45,3.63,1.08,5.1,0,0,.88,3,3.9,5.43,0,0,2.55,2.25,6.31,2.92,0,0,3.54.5,5.12.11,0,0,2.51-.33,3.73-.96,0,0,3.04-1.22,5.11-4.13,0,0,1.75-2.01,2.18-4.95h-7.53s-1.04,3.19-4.72,3.56l-1.58.03s-3.15-.19-4.7-2.49c0,0-.75-.77-1.36-3.05,0,0-.19-1.03-.19-1.56l-.04-.68h20.51v-2.8ZM144.21,30.03h-12.59c.22-2,.71-2.84.71-2.84,1.03-2.68,2.88-3.28,2.88-3.28,4.17-1.63,6.75.81,6.75.81,2.49,1.95,2.25,5.31,2.25,5.31Z"/>
      <path class="cls-5" d="M163.48,23.75v17.76s.06,1.37,1.36,1.33h3.16v6.19l-4.99.14s-2.19-.01-4.34-1.02c0,0-2.17-.99-2.44-4.06l-.1-6.85v-13.7h-3.89v-5.79h3.9l.04-8.74h7.31l-.06,8.75h4.57s0,5.8,0,5.8l-4.57-.04.04.23Z"/>
      <rect class="cls-2" x="172.09" y="35.98" width="12.28" height="4.87" rx="2.44" ry="2.44"/>
      <path class="cls-2" d="M199.75,18.8s-.36-2.41-1.45-4.21c0,0-1.38-2.43-3.59-3.89,0,0-1.71-1.35-3.89-1.76,0,0-2.46-.62-4.77,0,0,0-3.06.54-5.23,3.53v-1.6s-.29-1.32-1.97-1.86h-4.64s-1.71.35-1.98,2.19v.75s.05.91,1.04,1.65c0,0,.36.35,1,.41l1.35.05.02,15.24-.07,6.68h5.3l-.04-6.89s.04-.05.06-.02c.25.37,1.22,1.75,2.67,2.52,0,0,2.03,1.08,4.09,1.1,0,0,2.87.08,5.2-.98,0,0,2.6-1.12,4.34-3.3,0,0,1.38-1.6,2.09-4.01,0,0,.86-2.23.48-5.58ZM187.73,27.86c-3.79,0-6.86-3.2-6.86-7.14s3.07-7.14,6.86-7.14,6.86,3.2,6.86,7.14-3.07,7.14-6.86,7.14Z"/>
      <rect class="cls-2" x="236.67" y="35.91" width="12.28" height="4.87" rx="2.44" ry="2.44"/>
      <path class="cls-2" d="M264.33,18.73s-.36-2.41-1.45-4.21c0,0-1.38-2.43-3.59-3.89,0,0-1.71-1.35-3.89-1.76,0,0-2.46-.62-4.77,0,0,0-3.06.54-5.23,3.53v-1.6s-.29-1.32-1.97-1.86h-4.64s-1.71.35-1.98,2.19v.75s.05.91,1.04,1.65c0,0,.36.35,1,.41l1.35.05.02,15.24-.07,6.68h5.3l-.04-6.89s.04-.05.06-.02c.25.37,1.22,1.75,2.67,2.52,0,0,2.03,1.08,4.09,1.1,0,0,2.87.08,5.2-.98,0,0,2.6-1.12,4.34-3.3,0,0,1.38-1.6,2.09-4.01,0,0,.86-2.23.48-5.58ZM252.25,27.8c-3.82,0-6.92-3.2-6.92-7.14s3.1-7.14,6.92-7.14,6.92,3.2,6.92,7.14-3.1,7.14-6.92,7.14Z"/>
      <rect class="cls-2" x="198.73" y="27.39" width="12.02" height="4.88" rx="2.44" ry="2.44"/>
      <path class="cls-2" d="M207.35,27.41l-.02-6.33s-.17-3.57,2.26-5.44c0,0,.88-1.13,2.93-1.44l1.53-.13s1.72-.7,1.77-2.12c0,0,.5-1.56-1.26-2.92,0,0-1.28-.66-3.43.25,0,0-2,1.03-3.07,2.81,0,0-.7,1.05-.93,1.74l-.17-.03v-2.52s-.18-1.78-2.16-2.27h-4.14s-1.53.38-1.9,2.06c0,0-.27,1.31.58,2.2,0,0,.55.6,1.44.67l1.38.03v4.5s.02,4.87.02,4.87l-.03,4.05,5.19.02Z"/>
      <path class="cls-2" d="M235.37,27.36l-4.32.04-3,.05-2.54-.03s-1.8-.08-3.27-1.25l-.75-.63.41-.29,7.34-3.83,4.3-2.32,2.23-1.18s1.54-.99,1-3.04c0,0-1.06-2.75-4.26-4.79,0,0-2.04-1.22-4.35-1.56,0,0-2.95-.6-6.01.52,0,0-2.37.9-4.27,2.94,0,0-1.82,2.15-2.62,4.48,0,0-.76,2.33-.66,4.54,0,0,.09,3.28,1.81,5.99,0,0,1.38,2.13,3.45,3.49,0,0,2.12,1.65,5.88,1.97h3.51l4.15-.09,1.94-.04s1.67-.13,2.02-2.14c0,0,.39-2.23-1.98-2.82ZM219.39,21.48l-.11-1.43c.07-2.48,1.77-4.51,1.77-4.51.65-1.12,3.08-2.15,3.08-2.15,1.95-.56,3.67-.16,3.67-.16,2.6.51,3.53,1.94,3.53,1.94l-11.94,6.3Z"/>
      <path class="cls-3" d="M193.43,47.03h4.98s1.24.06,1.2,1.44c0,0-.08,1.23-1.24,1.35l-4.18.06h-1.49s-3.56-.34-5.28-3.73c0,0-.56-1.21-.67-2.57,0,0-.22-1.69.72-3.64,0,0,1.26-3.03,4.75-3.74,0,0,1.82-.38,4.09.52,0,0,2.39,1.08,2.86,2.85,0,0,.39,1.31-1.09,2.05,0,0-1.7.27-1.83-1.46,0,0-.87-.79-2.14-.98,0,0-1.13-.22-2.35.39,0,0-1.64.86-1.96,2.6,0,0-.18.98.02,1.98,0,0,.16.96,1.15,1.89,0,0,.55.62,2.07.97l.39.02Z"/>
      <path class="cls-3" d="M206.41,36.12c-3.75,0-6.8,3.13-6.8,6.99s3.04,6.99,6.8,6.99,6.8-3.13,6.8-6.99-3.04-6.99-6.8-6.99ZM206.5,47.22c-2.16,0-3.92-1.82-3.92-4.07s1.75-4.07,3.92-4.07,3.92,1.82,3.92,4.07-1.75,4.07-3.92,4.07Z"/>
      <path class="cls-3" d="M217.86,46.94v-4.89s.14-2.24,2.11-2.81c0,0,2.01-.49,2.83,1.27,0,0,.34.63.31,1.07v5.95s0,1.08,0,1.08c0,0,.19,1.13,1.31,1.22h2.58s.98-.32,1-1.21v-.67s-.28-.91-1.34-.98h-.51v-5.27s.13-1.84,1.92-2.45c0,0,.51-.19,1.68.01,0,0,1.16.2,1.61,1.7l.03,2.36v5s.1,1.28,1.27,1.46l2.63.04s1.01-.43.98-1.23v-.71s-.32-.92-1.31-.91h-.54v-5.86s0-2.1-.76-2.88c0,0-.98-1.38-2.33-1.78,0,0-2.09-.63-3.7.19,0,0-1.44.55-2.22,2.31,0,0-.81-1.71-2.09-2.31,0,0-3.86-1.8-5.68,1.87,0,0,.16-1.72-1.38-2h-2.37s-1.4.67-.85,2c0,0,.33,1.03,1.83.84l.08,7.63,2.91-.04Z"/>
      <rect class="cls-3" x="212.92" y="46.98" width="6.84" height="2.86" rx="1.43" ry="1.43"/>
      <ellipse class="cls-4" cx="178.46" cy="48.6" rx="4.01" ry="4.06"/>
    </g>
  </g>
</svg>